<svg width="35" height="36" viewBox="0 0 35 36" fill="none" xmlns="http://www.w3.org/2000/svg">
  <g filter="url(#filter0_d_248_559)">
    <path d="M4.375 13.7317C4.375 13.193 4.64919 12.6877 5.11083 12.3755L16.4858 4.68296C17.093 4.27235 17.907 4.27235 18.5142 4.68296L29.8892 12.3755C30.3508 12.6877 30.625 13.193 30.625 13.7317V28.1286C30.625 29.5073 29.4497 30.625 28 30.625H7C5.55025 30.625 4.375 29.5073 4.375 28.1286V13.7317Z" fill="#F5835F"/>
    <path d="M20.7812 19.1406C20.7812 20.9528 19.3122 22.4219 17.5 22.4219C15.6878 22.4219 14.2188 20.9528 14.2188 19.1406C14.2188 17.3284 15.6878 15.8594 17.5 15.8594C19.3122 15.8594 20.7812 17.3284 20.7812 19.1406Z" fill="#F5835F"/>
  </g>
  <circle cx="17.5" cy="17.5" r="4.5" fill="white"/>
  <defs>
    <filter id="filter0_d_248_559" x="3.375" y="4.375" width="28.25" height="31.25" filterUnits="userSpaceOnUse" color-interpolation-filters="sRGB">
      <feFlood flood-opacity="0" result="BackgroundImageFix"/>
      <feColorMatrix in="SourceAlpha" type="matrix" values="0 0 0 0 0 0 0 0 0 0 0 0 0 0 0 0 0 0 127 0" result="hardAlpha"/>
      <feOffset dy="4"/>
      <feGaussianBlur stdDeviation="0.5"/>
      <feComposite in2="hardAlpha" operator="out"/>
      <feColorMatrix type="matrix" values="0 0 0 0 0 0 0 0 0 0 0 0 0 0 0 0 0 0 0.25 0"/>
      <feBlend mode="normal" in2="BackgroundImageFix" result="effect1_dropShadow_248_559"/>
      <feBlend mode="normal" in="SourceGraphic" in2="effect1_dropShadow_248_559" result="shape"/>
    </filter>
  </defs>
</svg>
